<svg xmlns="http://www.w3.org/2000/svg" width="368" height="339.648" viewBox="0 0 368 339.648"><defs><style>.a{fill:#708d81;}.a,.b{fill-rule:evenodd;}</style></defs><path class="a" d="M382.6,455.59q-.072-29.348-1.108-58.744c-.482-14.505-1.108-29.011-2.313-43.468-.482-5.735-1.06-11.469-1.928-17.156-.53-3.518-1.06-7.373-2.554-10.65a4.267,4.267,0,0,0-1.976-2.313c-3.807-2.024-9.06-2.313-13.3-2.747a167.384,167.384,0,0,0-20.867-.771c.386,7.47.819,14.939,1.2,22.409.289,5.735.626,11.518.964,17.252.193,3.614.675,7.373.578,10.987-.048,2.94-3.566,5.783-5.3,8.1l-6.506-19.951c-1.157,2.988-2.361,5.927-3.711,8.771a38.539,38.539,0,0,1-2.94,5.59c-1.06,1.59-1.4,1.831-3.229,1.542-2.217-.337-3.952-1.012-5.253.675-1.157,1.494-2.265,2.988-3.518,4.385-14.023,15.421-35.661,25.011-55.66,29.348-11.807,2.554-23.71,4.626-35.468,7.229-18.023,3.952-36.48,7.9-53.684,14.7a47.025,47.025,0,0,0-7.855,3.759c-2.7,1.687-4.626,4.289-6.506,6.843-4.578,6.265-9.975,16.481-2.891,23.035,5.4,5.012,13.879,5.494,20.915,6.072,7.277.578,14.6.867,21.878,1.108,19.854.626,39.757.771,59.66.819,18.168,0,36.336-.1,54.5-.434,8.241-.145,16.192.048,24.143-2.072,16.337-4.337,32.577-8.819,48.865-13.3,1.253-.289,2.554-.627,3.855-1.012" transform="translate(-84.649 -165.629)"/><path class="b" d="M132.129,118.886c.771.771-.482,1.4-1.012,1.59A2.079,2.079,0,0,1,132.129,118.886ZM236.606,267.794c.289-.675.723-1.253,1.542-.916C239.5,267.409,236.8,267.794,236.606,267.794ZM121.383,156.137c-.53.048-2.8-.048-2.072-1.3.819-1.4,1.879.867,2.072,1.3Zm40.191-12.481a6.183,6.183,0,0,1-2.265-4.144C160.417,140.234,161.043,142.5,161.574,143.656Zm-28.24-20.288c-.964.048-.1-1.349-.1-1.59,0-.578-.578-1.108-.482-1.783a12.531,12.531,0,0,1,1.253-2.361c.723-.386,1.157.337,1.831.53.964.337,1.446.048,2.506.145a23.442,23.442,0,0,0,2.65.53c.241,0,.482-.482.723-.482.434.048.434.578.723.578,1.012.1,1.06-.337,2.024-.675,1.59-.626,2.7.819,2.65,2.554-.048,2.313-2.458,3.229-4.289,3.759-2.361.675-3.711,1.108-6.12.675-.675-.145-1.4.1-1.976-.386-.723-.626-.337-2.024-1.2-2.65a4.469,4.469,0,0,1-.193,1.157Zm83.514,91.61c-.193,1.494.193,2.265-1.253,3.277-.867.578-1.928.964-2.843,1.59-1.3.867-3.325,1.4-4.482,2.41-.723.626-.867,2.41-1.928,2.65-.867.193-1.928-1.4-2.217-2.12-.337-.771-.1-1.446-.241-2.217-.1-.53-.482-.626-.434-1.253.1-.675.723-1.012.964-1.542.241-.482.337-1.108.53-1.494A9.815,9.815,0,0,1,207.306,213c.771,1.976,1.349-.048,2.41-.626h1.157c.193-.193.434-.386.626-.578a5.284,5.284,0,0,1,1.735.337,3.719,3.719,0,0,1,.723-.1c.337.1.482.289.385.53-.145-.048.675.434.723.482,1.59,1.06,2.988,1.494,3.277,3.759-.482-.578-1.012-1.2-1.494-1.831Zm-12.24-80.864c1.687-4.337,1.157-8.192.964-12.722-.048-1.06-.289-3.373.867-4.048,1.4-.867,2.554,1.108,3.277,1.928,1.253,1.4,2.988,2.7,3.614,4.578.578,1.638,0,3.614-.434,5.2-.482,1.735-1.06,4.048-2.6,5.012A5.954,5.954,0,0,1,204.608,134.114Zm-59.081,92.381c.241-3.325,4.867-2.169,6.939-1.157a9.421,9.421,0,0,1,3.422,3.325c1.108,1.59,1.494,2.024,1.4,3.9a26.616,26.616,0,0,1-.434,5.156,3.118,3.118,0,0,1-.819,1.638s-1.012,1.012-.723.819a11.819,11.819,0,0,1-4.723.964c-2.169.145-2.7.193-3.566-1.879-.145.337-.337.723-.482,1.06a23.544,23.544,0,0,1-.53-3.229c.241.048.482.771.626.916-.1-1.4-1.06-2.41-1.542-3.662-.434-1.108-.626-2.41-.964-3.566a8.281,8.281,0,0,1-.386-3.9c.434-1.494.578-1.06,1.783-.386ZM117.576,153.1c-.771.723-.1,1.879-.193,2.747-1.012-.626-.675-.964-1.06-1.976-.241-.675-1.012-1.928-1.687-.819-.289.434.626,1.06,0,1.349-.386.145-1.349-1.06-1.494-1.253a7.137,7.137,0,0,1-2.12-4.482,6.673,6.673,0,0,1,.145-2.024c.53-.819,1.831-.337,1.735-1.831-.53.289-1.06.53-1.59.819-.145-1.687,1.638-2.65,2.41-4a14.436,14.436,0,0,1,2.843-3.9,8.961,8.961,0,0,1,2.554-2.12c.675-.241.916.1,1.59.1,1.4,0,3.47-.337,1.4,1.157a5.425,5.425,0,0,1,1.3.626c.241.241.386.867.675,1.06.675.337,1.157-.337,1.928.434s0,1.3.145,1.638c.53,1.012,1.2.482,1.2,2.024-.048,2.506-1.494,5.494-2.265,7.855-.482,1.4-.964,3.518-2.891,2.988a2.315,2.315,0,0,1-.193,1.879,13.253,13.253,0,0,1-.819-2.072c-.386-.819-1.06-1.638-1.494-2.41a3.1,3.1,0,0,0,1.06,2.554C119.6,153.535,118.2,154.4,117.576,153.1Zm82.55,36.528c-1.012-.771.337-1.638-1.735-1.2-.53.1,0,.723-.771.723-.289,0-1.012-.723-1.253-.916-.193-.145-1.012-1.3-1.157-1.349.241.145-1.012-.386-.626-.048a5.166,5.166,0,0,1-1.638-2.8c-.819-2.94-.723-6.458,1.012-9.012.723-1.06,1.3-2.361,2.361-3.084,1.446-.964,3.9-1.542,5.494-2.169l-.53-1.3a14.171,14.171,0,0,1,7.951,11.566c.145,1.735.626,3.952-.434,5.446-1.108,1.59-3.855,3.277-5.4,1.494a2.055,2.055,0,0,1-1.494,2.41c-.386.1-.771-.193-.964-.145C200.752,189.388,200.319,189.678,200.126,189.629ZM241.329,89.2c3.036-.337,2.554,5.108,1.976,6.747-.434,1.3-2.072,3.132-2.94,4.289a13.289,13.289,0,0,1-3.855,3.277,9.862,9.862,0,0,1-1.3.578.774.774,0,0,0-.53-.241,1.729,1.729,0,0,1-.819.723,13.98,13.98,0,0,1-4,.241c-1.735-.1-3.807-1.108-5.542-1.446a5.582,5.582,0,0,1-1.976-.626c-.385-.193-1.06-1.879-1.157-.241-.434-.289-.289-.723-.626-.916s-1.3-.386-1.687-.819a13.692,13.692,0,0,1-1.59-2.747,7.543,7.543,0,0,1-.675-2.41c.1-1.157.434-.867,1.446-1.349a8.738,8.738,0,0,1,1.687-.771c.1,0,.241.386.386.337.241-.048.337-.337.482-.386,1.2-.386,2.6-1.542,4.1-1.446.626.048,1.253,1.012,1.59.964.482-.1.241-1.108.626-1.494.916-.964,3.9-.819,5.06-.964,3.036-.482,6.168-.867,9.349-1.3ZM135.7,171.992c-.289-2.265-.626-4.482,1.831-5.638a7.081,7.081,0,0,1,2.65-.386c1.253-.145,1.06-.675,1.976.626.53-.675.193-.867,1.012-.964a13.581,13.581,0,0,1,2.217,1.108c1.638.675,3.711.626,4.915,1.928a10.084,10.084,0,0,1,2.65,4.337c.241.916.434,1.831.723,2.7.337.964,1.108,1.783,1.349,2.747,1.06,3.855-3.47,7.421-6.6,8.433a2.072,2.072,0,0,0-1.2.1,3.079,3.079,0,0,0-.723.626,2.539,2.539,0,0,1-2.265-.241c-1.687-.771-3.614-1.012-4.915.771-.386-2.072-1.831-.819-2.506-2.169-.386-.723.434-2.747-.048-3.277-.819-.916-3.373.675-3.277-1.4.048-.771.867-1.012,1.2-1.59a2.909,2.909,0,0,0-.53-3.181c-.048.145-.337,1.253-.675.964-.964-.771.626-1.928.964-2.361a2.7,2.7,0,0,0,.964-2.169c-.1-.578-1.012-1.2-.964-1.783.048-.337,1.2.771,1.253.819Zm44.094,24.384c-.048,1.59.964,1.783,1.59,2.891.193.289.193,1.012.434,1.446.482.819.819.867.964,1.638a5.117,5.117,0,0,0-.241.867c-.048,1.108.723,2.024.482,3.229-.289,1.735-1.59,3.662-2.554,5.108-2.072,3.229-5.012,5.783-9.012,6.024-2.7.145-8.963-.916-9.542-3.711a8.684,8.684,0,0,0,.386-1.012.935.935,0,0,0-.53-1.012,1.488,1.488,0,0,1-.771-.53,2.444,2.444,0,0,1,.434-.771c-.1-.386-.723-.386-.675-.626a18.733,18.733,0,0,1,.53-2.072c.193-.867.289-1.735.434-2.6.145-.723.578-1.06.675-1.735.1-.434-.386-.867-.337-1.349a3.611,3.611,0,0,0,.723-.964,1.687,1.687,0,0,0-.289-1.06c.434-3.132,4.915-5.783,8.1-5.879,1.687-.048,4.626-.145,6.168.723,1.012.626,1.687,2.747,3.036,1.4Zm68.382,111.079a30.1,30.1,0,0,1,6.65-2.554c1.735-.337,3.229-1.349,4.964-1.638a75,75,0,0,0,11.71-2.7c3.952-1.446,8.289-1.976,12.337-3.181a26.53,26.53,0,0,1,5.831-1.108c2.024-.1,4.1-1.253,6.12-1.06,1.687.145,2.891,1.446,4.193,2.361a55.063,55.063,0,0,0,5.4,3.229c1.928,1.06,4.1,1.59,6.024,2.6,1.59.867,3.181,1.687,4.819,2.458,8.722,4.144,17.2,8,25.059,13.734-2.554.771-5.445,0-7.951-.289-3.614-.385-7.18-.675-10.746-1.349-2.072-.386-6.12-1.879-8.144-.723-1.735,1.012-1.59,3.566-1.879,5.3-1.638-.626-3.277-1.3-4.964-1.879-1.3-.482-3.422-1.783-4.771-1.831-3.711-.145-3.325,5.108-2.94,7.47-2.169-.723-4.241-1.253-6.313-2.169-1.687-.723-3.566-.916-5.2-1.783-4.048-2.169-8.578-3.518-12.963-5.06-4.915-1.735-9.831-3.518-14.7-5.349-2.024-.771-4-1.783-6.024-2.41a48.4,48.4,0,0,1-6.506-2.072Zm-48.48-198.689a67.324,67.324,0,0,1-.1,8.819,91.606,91.606,0,0,1-.578,10.265,80.787,80.787,0,0,1-4.144,18.168c-2.024,5.3-5.4,9.06-11.132,10.216a13.445,13.445,0,0,1-13.445-4.867c-3.422-4.289-4.434-9.686-6.458-14.6-.964-2.41-1.687-4.867-2.506-7.325-.482-1.494-2.891-5.735-2.217-7.277.675-1.494,4.674-1.976,6.024-2.843,2.169-1.3,4.241-3.952,5.879-5.879,1.108-1.3,1.783-2.265,2.554-.193.916,2.458.241,5.3,1.108,7.71.819,2.361,2.65.048,2.843-1.494.337-2.94-.1-6.265-.193-9.2-.241-5.494-.626-11.855-5.59-15.276-4.723-3.229-9.783-4.193-12.433-9.783-1.06-2.217-2.265-4.578-1.638-7.036a75.951,75.951,0,0,1,2.988-8.626c2.12-5.3,5.446-9.927,8.337-14.794.386-.675.482-1.494,1.349-1.687.964-.193,3.229,1.446,4.144,1.687,2.554.723,4.819-.771,7.084.916,1.783,1.349,3.325,3.325,5.783,3.47,1.06.048,2.458-.867,3.373-.675,1.157.289,1.494,2.024,1.928,2.988,1.012,2.217,2.169,5.012,3.855,6.795.578.626,1.59.819,2.072,1.4.578.675.241,2.024,1.06,2.12.482.048.867-.578,1.253-.723a5.994,5.994,0,0,1,2.072-.289,8.553,8.553,0,0,1,3.9,1.012c2.747,1.494,3.711,3.759.434,5.108a13.82,13.82,0,0,1-4.144,1.06c-1.542.145-3.132-.337-4.674-.145-2.988.386-3.9,2.843-4.674,5.4-1.06,3.518-1.928,7.084-3.084,10.554-.964,2.843-2.747,5.735-3.229,8.674-.289,1.831.1,1.687,1.3,2.8.916.867,1.494,1.976,2.506,2.843,2.7,2.313,5.156,1.687,8.385.723ZM19.026,279.312c.1-.626,13.349.578,14.843.434,2.554-.241,5.3.434,8,.337,2.361-.1,5.735-1.012,7.71.145.723.434.723.916,1.879.723a6.826,6.826,0,0,0,2.94-1.638c2.217-1.928,3.566-4.964,4.964-7.469,2.891-5.012,5.349-10.168,7.759-15.421,4.915-10.843,9.686-21.734,14.6-32.577,2.458-5.349,4.771-10.746,7.421-16,1.108-2.265,2.361-4.723,3.229-7.036.964-2.554,2.169-4.964,3.036-7.614,1.783-5.59,3.9-11.036,5.3-16.77.337-1.446.482-2.988.916-4.385a43.037,43.037,0,0,1,1.928-4.289,22.787,22.787,0,0,0,.867-4.385,34.9,34.9,0,0,1,1.494-4.482c2.6,1.59,5.59,2.988,8,4.867,2.361,1.831,5.831,3.373,4.819,6.7-.916,3.036-2.506,5.831-3.422,8.819-1.06,3.373-2.361,6.7-3.422,10.12-2.217,7.325-4.144,14.7-6.12,22.071-.916,3.47-2.072,6.939-2.747,10.457-.337,1.831-.289,3.47-.964,5.253-.675,1.735-1.253,3.422-1.783,5.2-.964,3.181-1.879,6.313-2.891,9.445-.578,1.687-1.012,3.422-1.446,5.156-.241,1.06-1.06,3.084-.867,4.144.675,3.132,4.819-.048,5.831-1.349,2.313-2.988,3.952-6.6,5.686-9.927,6.939-13.349,10.313-27.709,13.879-42.263.916-3.807,1.831-7.614,2.891-11.373,1.108-3.952,1.446-8.1,2.747-12.048,1.349-4.048,2.7-8,3.711-12.192.434-1.928.964-3.855,1.349-5.831.193-1.06.241-2.94,1.59-3.181-.916,6.506-1.2,14.168-3.807,20.288-2.361,5.542-4.241,13.156-1.831,19.035,1.157,2.843,2.94,5.253,4.337,7.951a64.745,64.745,0,0,1,3.518,9.686c2.12,6.65,2.747,13.686,4.144,20.481a21.988,21.988,0,0,1,.1,9.542c-.193,1.108.145,2.024-.771,2.747-.964.723-3.181.867-4.385,1.3a44.121,44.121,0,0,1-10.506,2.6,47.764,47.764,0,0,0-10.409,2.265c-6.168,2.12-12.578,3.711-18.65,5.831-3.325,1.157-6.506,3.229-9.734,4.723-3.325,1.542-6.843,2.554-9.975,4.482-3.373,2.072-6.7,4.482-9.879,6.843-2.94,2.169-4.385,4.867-5.59,8.192-2.361,6.409-8.241,14.7-2.8,21.156-1.928.819-4.1,1.157-5.927,2.072-.626.289-.819.626-1.542.771a17.031,17.031,0,0,1-3.132.1c-1.4.1-4.337,1.108-5.686.675-1.253-.386-1.3-2.217-2.217-3.132-1.349-1.349-2.65-.482-4.289-.626-2.458-.241-4.915-.53-7.325-.771-4.964-.434-9.879-.53-14.843-.53,2.6-2.891,12.1,2.361,12.337-2.843.289-6.024-7.084-4.193-10.65-5.927,3.229.1,6.506.145,9.734.386,1.976.145,5.735,1.108,6.843-1.06,1.2-2.313-.723-5.012-2.506-6.217a90.263,90.263,0,0,0-8.289-3.662Zm270.4-80.141c.578,1.2-.337,1.687-.723,2.6-.578,1.3,0,1.06.1,2.313.1.819-.145,1.2-.1,2.024,0,.337.482.771.53,1.157.1.675-.289,1.012-.241,1.494,0,.241-.289.289-.241.626.048.289.771.53.819.723.241,1.108-.434.578-.53,1.108-.193.867.337,1.06.626,1.879.482,1.4,0,2.072-.289,3.422-.241,1.108.145,1.108.289,2.169.1.626-.1.723-.1,1.349,0,2.072.482,4.241.482,6.458.048,5.2.482,10.361.53,15.566.048,5.108.434,10.265.675,15.469.1,2.506.385,5.06.482,7.566.145,2.94-.145,5.831.1,8.771.241,2.65.1,5.3.193,7.951.048,1.253.723,5.06-.145,5.927-1.06,1.108-5.446-.048-6.843,0a56.9,56.9,0,0,0-8.048,1.2c-6.168,1.3-12.337,2.94-18.505,4.1-5.156.964-9.975,3.422-14.746,5.542.434-4.385,1.2-8.674,1.349-13.108.145-4-.241-7.951-.145-11.9.193-8.481.675-16.867.482-25.348a222.85,222.85,0,0,0-2.072-25.975c-.53-3.9-.964-8.1-2.41-11.855-.626-1.687-1.687-2.94-1.253-4.771.482-2.024,1.4-4.1,2.072-6.072.482,3.181,2.265,24.336,9.494,17.975,2.843-2.506,4.144-7.855,4.771-11.421.867-4.771.53-9.783.53-14.6-.048-9.831-1.108-19.854-2.12-29.637-.193-1.976-1.2-3.711,1.3-3.614,2.361.1,4.771.626,7.084.916,2.024.241,4.048-.337,5.976-.1.867.1,1.687.626,2.554.771a27.056,27.056,0,0,0,3.422-.1c1.928,0,4.144,0,5.735,1.2a10.709,10.709,0,0,1,3.663,5.3c.578,1.976.385,4.241.771,6.265.289,1.687.386,3.759.627,5.686,1.2-1.494,1.108.675,1.157,1.3,0,.771.867,2.361.626,2.8-.145.289-1.06.145-1.157.385-.145.482.385.675.434,1.012.048,1.4-.048,2.843-.048,4.241a7.514,7.514,0,0,0,.964-.771,12.449,12.449,0,0,1,.386,1.253c.1.193.771.145.819.482.048.434-.916,1.3-1.108,1.783-.337.867-.53.53,0,1.446.675,1.06,1.735,1.157,1.542,2.7a8.211,8.211,0,0,1-.916-.916,13.191,13.191,0,0,0,.289,2.7c.048.626-.723,3.036-.145,3.422.337.145.964-.771,1.012-.867Zm-48.865-76.334c0-2.024,2.988-5.2,4-6.891a50.069,50.069,0,0,1,5.494-7.614c2.072-2.41,4.337-4.723,6.361-7.18.819-1.012,1.446-2.217,2.313-3.229,1.06-1.253,1.3-.867,2.6-.819a9.248,9.248,0,0,1,2.6.145c.482.145.819.386,1.349.53.337.1.771-.241,1.2-.1,1.108.386,1.494,1.349,2.8,1.349.145,0,.675-.386.723-.337.1.048.482.337.482.337.1,0,.048.626.289.771.386.193.675-.434,1.06-.386.916.1,1.638,1.06,2.65,1.3,1.3.289,2.458-.145,3.711.482,1.012.482,1.494,1.59,2.361.434.771,1.59,2.169,1.108,3.566,1.783a43.685,43.685,0,0,0,6.12,2.12c4.241,1.494,8.578,2.988,12.722,4.771,8.626,3.662,16.963,7.759,25.4,11.71,8.241,3.855,15.855,8.963,23.276,14.12a47.952,47.952,0,0,1,10.072,8.626c.867,1.06,2.313,2.7,1.735,4.144-.627,1.542-3.181,2.506-4.674,2.843a50.385,50.385,0,0,1-5.976.675c-2.12.145-4.385.193-6.457.193-4.1-.048-8.144-.482-12.289-.53-4.723-.1-9.3-1.108-14.023-1.157-5.156-.048-10.265-.723-15.421-.53-9.975.386-19.951.675-29.926.723a18.523,18.523,0,0,0-3.662.1,8.849,8.849,0,0,1-2.747.434c-1.012-.048-1.928-.482-2.94-.578-1.349-.048-2.7.145-4,.145-4.482-.1-9.831-.482-14.168.916-1.735.578-3.9,2.217-2.843,4.337s3.711.386,5.349,1.349c1.542.916.675,3.325.578,4.771a79.192,79.192,0,0,0-.145,8.289c.145,6.12.53,12.192.626,18.312.048,2.988,0,5.927-.145,8.915-.145,2.6-.048,5.446-.964,7.951-1.253-3.132-1.4-6.554-1.879-9.831-.53-3.566-1.06-7.132-1.542-10.65-.289-2.12-.626-14.794-4.771-13.156-4.385,1.783-2.891,11.518-3.084,15.035a56.052,56.052,0,0,1-1.3,9.831c-.337,1.494-1.3,7.9-3.229,8.289-1.4-6.7-2.891-13.349-3.952-20.144-.482-2.988-.867-5.976-1.06-9.012-.1-1.59,0-5.349-2.265-5.542-6.65-.53-2.217,27.565-7.18,31.083A35.143,35.143,0,0,1,216.27,190.4a21.306,21.306,0,0,1-.434-5.783c.386-2.41.771-3.9.289-6.409-.434-2.072-.723-4.144-1.2-6.217-.337-1.446-1.253-2.169-1.735-3.518-1.349-3.711-1.253-8.433-1.783-12.337-.53-3.952-1.108-7.855-.434-11.855.675-3.952,3.566-5.2,6.891-6.843s6.506-3.47,10.168-4.193a84.94,84.94,0,0,1,12-1.831,209.033,209.033,0,0,1,21.975.434c8.192.386,16.337-.1,24.529-.193,3.952-.048,8-.145,12-.048,1.976.048,3.9.385,5.927.337,1.687-.048,5.012.482,6.506-.434a1.943,1.943,0,0,0,.193-3.132c-.964-.867-2.891-.916-4.144-1.157-3.9-.867-7.807-1.349-11.71-2.024a28.936,28.936,0,0,0-6.458-.434c-2.217.1-4.434-.53-6.7-.626-4.723-.241-9.494-.434-14.216-.53-9.156-.1-18.216-.771-27.372-.771Zm-4.771,89.586c.723.289.53,3.807.626,4.53.193,2.12.434,4.193.626,6.313q.651,7.3,1.012,14.6c.289,4.867.578,9.783.578,14.65,0,2.072-.1,4.144-.048,6.217.048,1.542.723,4.482-.626,5.542-.867.723-2.65.386-3.662.337-2.072-.145-4.1-.289-6.168-.289-2.361,0-4.723.241-7.132.193a14.014,14.014,0,0,0-2.843,0,19.941,19.941,0,0,1-1.976.723c-.434,0-1.06-.434-1.542-.53a13.958,13.958,0,0,0-2.458,0,7,7,0,0,0-2.458.048c-.482.337-.289,1.06-.771,1.2-.193.048-1.157-1.108-1.349-1.2a6.357,6.357,0,0,0-2.7-.048c-2.313.048-4.674-.145-6.988-.1a60.864,60.864,0,0,0-6.65.53,21.943,21.943,0,0,1-4.626-.385c-2.458-.193-4.915-.145-7.325-.1-1.253.048-2.458.048-3.711.1a4.645,4.645,0,0,0-1.157,0c-1.108.337-.434.337-1.2.867,1.06-.675-2.361-1.108-2.554-1.108-1.542,0-2.94.723-4.241.578-1.4-.145-2.8-1.012-4.337-.771-.723.145-1.3.916-1.831,1.012-.867.145-1.157-.482-1.928-.771-1.542-.626-3.373-.1-5.012-.193-2.313-.145-4.482-.145-6.795-.193-4.193-.048-8.385-.145-12.626-.1-3.855.048-6.988,1.59-10.843,1.494-2.024-.048-4.1-.241-6.072-.193-1.735.048-2.6,1.349-1.3,2.843.867,1.012,2.506,1.157,3.759,1.3,1.831.289,3.662.675,5.494,1.012a103.84,103.84,0,0,0,13.445.867c18.12.53,36.191,2.169,54.311,2.313,7.951.1,16,.723,23.9.434,4.434-.193,8.771.771,13.2.1a54.5,54.5,0,0,1,5.638-.578,13.074,13.074,0,0,1,1.976-.193c.819.385.337.048.675.964.578,1.542.337,4,.337,5.59,0,2.6-.145,5.2-.241,7.807-.1,2.506-.241,4.964-.386,7.47-.048,1.012.337,4.915-.434,5.686-.626.578-3.47.289-4.289.145a4.7,4.7,0,0,0-2.024-.145,6.97,6.97,0,0,1-1.735,0,24.369,24.369,0,0,0-6.747.1c-1.687.289-3.422-.482-4.048,1.253-1.06-1.3-1.06-.578-2.217-.289-1.2.289-.867-.53-1.879-.626-.723-.1-1.4.482-2.169.482a25.309,25.309,0,0,0-3.855-.145,159.564,159.564,0,0,1-18.553,1.494c-2.554.048-5.108.048-7.662.145-1.3.048-2.554.193-3.807.337a20.665,20.665,0,0,1-3.422-.193,83.307,83.307,0,0,0-8.482.434c-1.3.048-2.94-.145-4.193,0-1.253.193-1.349,1.108-2.361,1.687-.145-3.084-6.65-1.108-8.337-1.108-.675,0-1.494-.289-2.265-.241-1.3.1-2.65.1-4,.145a37.57,37.57,0,0,1-6.168-.048,65.608,65.608,0,0,0-8.144,0q-4.337,0-8.674-.145c-2.94-.1-5.831-.289-8.771-.386-2.554-.1-5.253.145-7.759-.048-.626-.048-1.253-.53-1.831-.53-.819-.048-1.687.289-2.65.241-2.94-.241-5.638-.289-8.626-.289A58.222,58.222,0,0,1,77.481,301c-2.265-.626-4.578-.675-6.795-1.3a45.044,45.044,0,0,1-7.277-3.325c-1.831-.964-4.434-1.4-3.711-3.855.819-2.6,2.072-5.156,3.036-7.71.819-2.217,1.349-4.434,3.181-6.072,1.783-1.639,4.048-2.8,5.976-4.289A50.776,50.776,0,0,1,85.24,267.12c4.964-1.976,9.445-4.915,14.65-6.265,4.819-1.253,9.445-2.891,14.216-4.144,5.156-1.4,10.506-1.879,15.71-3.084,5.012-1.157,9.927-2.891,14.987-3.807,5.494-.964,10.987-1.446,16.481-2.65,4.626-1.012,9.06-2.94,13.686-3.759a30.019,30.019,0,0,0,4.144-.819c1.253-.385,2.12-1.2,3.373-1.542a49.74,49.74,0,0,0,8.1-3.036,19.267,19.267,0,0,0,2.747-1.783,17.292,17.292,0,0,1,4-1.446,30.872,30.872,0,0,0,7.373-3.036,74.9,74.9,0,0,0,6.747-4.867c.916-.723,1.928-1.446,2.843-2.169a16.378,16.378,0,0,1,3.662-1.542c5.686-2.361,8.192-8,11.277-12.867.434,4.048,4.241,5.879,6.554,2.12ZM155.02,143.367c-.386-1.783-.964-4.289,1.253-4.385a11.416,11.416,0,0,1,1.735.434c.771.482,1.012,2.072,1.3,2.891a5.658,5.658,0,0,0,.964,2.12c.53.53,1.108.53,1.638,1.157,1.59,1.879,2.747,5.108,3.662,7.373-1.3-.289-.337.53-.916,1.06-.867.771-.578.626-1.783.771-2.12.193-3.084-.337-4.723-1.687a7.906,7.906,0,0,1-2.65-3.47c-1.108-2.41-.53-3.855-.482-6.265l-1.735,1.59c.193-.723.337-1.4.53-2.12ZM215.932,3.855C214.824,0,212.7-.289,209.86,2.506,209.427,1.494,208.9,0,207.6,0c-.916,0-1.108.771-1.687,1.253a4.132,4.132,0,0,1-2.265.964c-2.072.337-4,.241-5.927,1.157-1.783.867-2.6,2.072-4,3.325-1.3,1.2-2.217.434-3.662,1.012-1.638.675-2.361,2.65-2.65,4.241-.386,1.928,0,2.554-1.349,4a7.735,7.735,0,0,0-2.12,4.867,8.377,8.377,0,0,0,1.253,5.253c1.108,1.638,2.313,1.2.819,3.132-.723.964-.819,3.084-1.735,3.711-1.542,1.108-3.566-.675-4.915-1.108-1.879-.626-1.446.434-2.265,1.638-1.2,1.831-1.928-.048-3.566.289-.626.145-.771.771-1.012.867-.771.289.048.193-.819-.145-.578-.193-.193-1.3-1.349-.675-.819.434-.193,1.2-.578,1.783-.723,1.108-1.783.482-2.313,1.928a32.436,32.436,0,0,0-1.542,4.915c-.337,1.928.482,3.566.337,5.349-.145,1.879-1.976,3.132-3.132,4.482-5.686,6.458-8.1,14.987-9.975,23.18a22.728,22.728,0,0,0,7.277,21.493c3.036,2.6,6.795,3.759,9.686,6.65,1.3,1.3,1.253,1.687-.241,2.747a33.132,33.132,0,0,1-3.759,2.65,38.492,38.492,0,0,1-10.6,3.711,24.02,24.02,0,0,1-5.879.145c-2.024-.048-4.337.193-6.313-.048-1.735-.241-3.132-1.638-4.964-1.494a12.669,12.669,0,0,1-1.879.289,26.09,26.09,0,0,0-2.8-.578c-1.542.048-3.084.048-4.578.145-1.687.048-3.711-.386-5.4-.1-1.59.289-3.518,1.735-4.915,2.554a51.223,51.223,0,0,0-5.349,3.518c-1.446,1.2-2.506,3.132-3.614,4.626-1.2,1.59-2.6,2.988-3.807,4.578-4.771,6.217-9.831,13.831-11.325,21.637a18.793,18.793,0,0,0-.1,5.927c.241,1.783,1.928,2.458,1.976,4.337.1,3.855-1.735,8.337-2.8,12a71.335,71.335,0,0,1-4.289,11.18,27.989,27.989,0,0,0-1.976,4c-.53,1.783-1.3,3.47-1.879,5.253-5.012,15.469-12.819,29.878-18.505,45.106-3.036,8.192-6.265,16.288-9.59,24.384-1.638,4-3.422,7.855-5.2,11.758-.241.53-.386,1.494-.819,1.879-.675.578-.1.241-1.06.145-.819-.1-1.687-.482-2.554-.626-2.024-.337-4.1-.386-6.168-.578a45.355,45.355,0,0,0-6.747-.241c-2.169.1-4.337-.53-6.506-.675-4.674-.289-9.253-.145-13.927-.048-3.614.048-8.289-.386-11.662,1.3s-2.217,5.59.626,7.084c3.422,1.783,7.47,2.024,10.843,3.855-2.554.771-5.3.578-7.9,1.2-1.687.386-4.289.675-5.542,1.928a3.905,3.905,0,0,0-.289,4.626c1.012,1.735,2.94,2.024,4.674,2.651-.771,1.06-2.024.964-2.7,2.313a5.073,5.073,0,0,0,.819,5.349c2.506,3.422,7.421,3.711,11.277,4.193a61.9,61.9,0,0,0,11.566.337c2.169-.145,4.289-.241,6.458-.578,2.458-.337,2.217,1.4,3.084,3.132a3.77,3.77,0,0,0,3.952,2.361,55.709,55.709,0,0,0,6.361-.578c1.928-.337,3.614-1.349,5.494-1.735a18.728,18.728,0,0,0,4.626-1.783c1.831-.916,2.8-2.506,4.385-3.566,1.638-1.108,3.373.626,4.964,1.494,3.952,2.12,8.241,3.036,12.53,4.048,4.385,1.06,8.674,2.409,13.108,3.132,2.072.337,4.048.289,6.12.53,2.361.241,4.434,1.157,6.891,1.157,8.578,0,17.2,1.59,25.83,1.831,8.482.289,17.156-.434,25.637.145,4.337.289,8.53-.289,12.867-.048a105.157,105.157,0,0,0,13.493-.337c9.2-.723,18.168-.53,27.276-.964a127.675,127.675,0,0,0,14.264-1.446c4.578-.723,9.783.1,13.06-3.9.337,1.59.434,3.181,1.59,4.434,1.2,1.3,3.132,1.831,4.771,2.41,4.1,1.494,8.289,2.94,12.433,4.385,3.952,1.349,7.9,2.843,11.855,4.1,4.144,1.3,8.144,2.891,12.24,4.434,3.711,1.4,7.566,2.506,11.132,4.193,1.494.675,3.036.771,4.434,1.4a40.615,40.615,0,0,0,5.2,2.12c1.59.482,3.084.867,4.626,1.494s3.711,1.735,5.3.916c1.108-.578,1.59-1.976,1.928-3.084.434-1.446.048-3.9,1.735-3.855s4.048,1.687,5.686,2.217a46.488,46.488,0,0,0,5.976,2.12c2.024.386,3.614.241,4.674-1.638,1.2-2.12,1.012-4.337.626-6.65,3.422,0,6.6.337,10.072.434a44.777,44.777,0,0,0,5.686-.048c1.735-.193,4.289.337,5.783-.434,3.036-1.59,2.6-6.12,1.06-8.578a9.971,9.971,0,0,0-3.518-3.132,31.241,31.241,0,0,1-4.434-3.566c.964-.675,2.217-.337,3.181-1.157a6.433,6.433,0,0,0,1.542-2.506c.626-1.638-.193-5.4,1.253-6.313.771-.482,2.12-.289,2.94-.675a4.846,4.846,0,0,0,2.506-2.747c1.157-2.7.145-5.494-.964-8,4.241-.723,10.457-1.012,11.662-5.927a8.963,8.963,0,0,0-.1-4.915c-.771-2.265-2.65-2.41-4.674-3.084-8.53-2.8-16.529-7.373-25.734-8.048-4.915-.386-9.879-.53-14.843-1.06s-9.734-1.4-14.7-.819c-2.12.241-4.578.048-6.6.434-1.976.386-2.217,2.7-.723,4,1.446,1.3,3.566.482,5.3.626,2.458.193,4.53,1.349,6.795,2.12A92.657,92.657,0,0,0,330,278.782c3.132.337,6.12.385,9.2,1.253,2.8.771,5.59,1.638,8.385,2.361-3.084.819-9.012.723-10.024,4.482a5.187,5.187,0,0,0,1.59,5.3c.916.626,2.843.337,3.422,1.3-2.41.289-5.156-1.542-6.506,1.108-1.494,3.036-.048,5.446,1.928,7.662-1.735-.289-3.47.048-5.2-.193-1.349-.193-2.6-.578-3.855-.145-.626.193-.53.771-1.349.771a6.509,6.509,0,0,1-1.976-.867c-1.928-.916-3.9-1.687-5.879-2.458a50.862,50.862,0,0,0-7.132-2.265c-3.325-.819-6.7-2.94-9.927-4.1-1.4-.482-3.132-1.012-3.855-2.458-.723-1.494-.145-3.662-.145-5.2.145-4.434.048-8.819.048-13.252,0-3.711-.1-7.373-.434-11.036-.385-4.434-.048-8.819-.193-13.252-.145-4.048.193-8.144.1-12.192-.145-4.53-.337-9.06-.386-13.59-.1-8.144-.337-16.288-.53-24.433a127.361,127.361,0,0,0-2.843-24.914,72.328,72.328,0,0,0-3.229-10.891c-.434-1.108-.916-1.157.145-1.783.626-.386,1.4.048,2.024.145a19.668,19.668,0,0,0,3.759.193,159.272,159.272,0,0,1,22.987.578c3.9.337,7.855.675,11.807.819s7.855.771,11.807.482c6.6-.482,14.12.289,19.758-3.952,6.024-4.53,5.446-12.53,1.59-18.361-4.289-6.409-11.469-10.024-17.445-14.505-5.879-4.385-12.819-7.614-19.228-11.18a292.43,292.43,0,0,0-43.275-19.854c-15.035-5.349-30.119-11.469-46.5-10.409-8.289.53-17.59.819-24.914,5.253a66.611,66.611,0,0,0-11.036,7.9c-1.59,1.446-2.988,3.277-4.674,4.626-1.59,1.253-3.084.386-4.915-.048,1.253-4.1,2.554-8.192,3.807-12.289a7.966,7.966,0,0,0,6.458,1.4c2.747-.578,2.554-1.783,2.313-4.144-.1-1.108-.434-.916.53-1.59.771-.578,2.217-.771,3.084-1.253a10,10,0,0,0,5.012-5.494c.819-2.458.241-4.771-.289-7.18-.626-2.94.964-1.687,2.8-3.084a1.909,1.909,0,0,0,.964-2.12c-.1-.819-1.687-1.976-1.638-2.747.1-.964.626-.867,1.4-1.446a4.972,4.972,0,0,0,1.783-2.41c.771-2.12-.819-3.422-1.494-5.4a7.894,7.894,0,0,0-1.253-2.554c-1.108-1.4-1.542-1.4-3.132-1.349-1.3,0-1.3-.1-2.313-1.3A16.386,16.386,0,0,1,210,47.275c-.578-.867-.723-.723-.1-1.4,1.879-2.072,2.7,1.157,4.337.964,1.928-.241,2.265-3.229,3.422-4.241.819-.723,1.783-.434,2.7-.916,1.108-.578,1.349-1.687,2.072-2.65,1.157-1.494,2.891-1.783,3.662-3.711a10.133,10.133,0,0,0,.578-3.373,21.319,21.319,0,0,1,1.06-4.53,4.889,4.889,0,0,0-.434-4.241,4.817,4.817,0,0,1-.723-3.711,5.488,5.488,0,0,0-.482-3.614,8,8,0,0,1-1.108-3.325,2.96,2.96,0,0,0-1.831-2.65c-.819-.337-1.735.048-2.313-.771s-.434-2.072-1.012-2.988c-.819-1.735-2.265-1.928-3.9-2.265Z" transform="translate(-0.001)"/><path class="b" d="M414.851,133.369c.578-1.349,2.458-7.469-.675-7.469-2.458-.048-1.687,5.3-1.735,6.6-.048,2.458-2.6,2.8-3.566,5.012a7.725,7.725,0,0,0,1.4,7.759c1.349,1.59,3.855,3.422,5.686,1.494,2.024-2.169.1-3.422-1.349-4.771-2.072-1.976,1.879-2.554,2.891-4.144,1.831-2.747-.1-4.193-2.65-4.482" transform="translate(-247.014 -65.228)"/><path class="b" d="M387.853,139.238c.289,1.253.193,4.144,1.542,4.819,2.313,1.157,2.843-4.337,2.8-5.542,0-1.3-.482-4.337-2.361-3.952-2.072.434-.867,4.385-1.976,4.674" transform="translate(-211.101 -69.7)"/><path class="b" d="M412.373,177.4c-3.373.1-3.181,4.144.048,4.289,3.036.145,2.94-4.385-.048-4.289" transform="translate(-244.199 -91.909)"/><path class="b" d="M425.159,302.586a6.308,6.308,0,0,0,2.169,3.47c-.241-.53-1.4-3.711-2.169-3.47" transform="translate(-264.213 -156.762)"/></svg>