<svg xmlns="http://www.w3.org/2000/svg" width="517.583" height="320.203" viewBox="0 0 517.583 320.203"><defs><style>.a{fill:#708d81;}.a,.b{fill-rule:evenodd;}</style></defs><path class="a" d="M329.459,386.8c2.441,2.821,6.076,4.937,8.843,7.541,2.93,2.713,6.076,5.1,9.006,7.812,12.8-15.679,30.382-25.282,45.572-38.248,7.216-6.185,12.532-14.54,16.384-23.112a74.527,74.527,0,0,0,4.612-13.617c.543-2.116,1.031-4.232,1.356-6.348.434-2.6.543-2.821,2.279-4.828.76-.868,2.224-3.418,3.689-3.147,1.248.217,3.526,4.015,4.286,4.937,3.743,4.5,7.433,9.115,11.393,13.4,6.076,6.619,11.61,13.075,17.252,20.074,11.5,14.323,23.98,27.778,36.512,41.232.922.977,3.092,3.906,4.449,4.34,1.628.488,4.286-1.519,5.914-2.6,3.96-2.713,7.053-6.022,10.417-9.332,6.565-6.51,11.068-15.625,14.052-24.305,1.79-5.208,2.984-10.579,4.828-15.788.76-2.17,2.55-4.828,1.628-6.673a7,7,0,0,0-2.55-2.17c-.705-.109-1.9.814-2.116.76-2.333-.651-1.031-3.092-2.441-4.395-.76-.76-4.774-.651-5.968-1.031-4.394-1.519-8.3-4.34-12.424-6.076-17.307-7.161-34.776-14.106-49.7-25.77-3.852-3.038-6.456-5.317-11.068-7.27-4.666-1.953-9.332-3.743-14.106-5.48a128.757,128.757,0,0,0-12.749-4.015c-4.666-1.194-11.339-2.658-16.059-1.139-9.223,2.984-12.207,10.579-15.842,18.555a235.607,235.607,0,0,1-17.469,31.033c-12.587,19.151-27.778,36.35-39.984,55.664" transform="translate(-193.347 -128.505)"/><path class="b" d="M413.4,89.011c.488-.271,4.449,1.356,5.1,1.573a60.1,60.1,0,0,1,7.65,3.96c-1.9,2.333-3.852,4.666-5.751,7a69.529,69.529,0,0,0-7-12.532Zm-1.3,28.646c.651.054-4.829,13.292-5.48,14.757-2.333,5.425-4.774,10.742-7.161,16.113a132.487,132.487,0,0,1-8.138,14.92c-2.5,4.177-5.1,10.634-8.9,13.726,2.387-10.579,2.062-22.786,8.952-31.684C398.48,136.32,405.478,127.314,412.1,117.657ZM136.112,259.04c10.634-16.818,23.926-31.684,34.993-48.177,6.185-9.223,12.207-18.609,17.469-28.429,3.8-7.161,6.131-17.361,11.99-22.841,2.6-2.387,5.317-4.774,8.789-5.859,4.72-1.465,11.285,0,16.059,1.139a169.642,169.642,0,0,1,25.987,9.115c8.518,3.581,15.788,10.091,23.492,15.245,8.246,5.588,17.2,9.657,26.475,13.183,8.084,3.092,15.245,7.541,23.275,10.634,1.573.6,4.883.543,6.185,1.356,1.465.868.868,3.472,2.6,4.394.814.434,1.031-1.139,1.682-1.085.76.054,1.411.922,2.116,1.465,2.93,2.224,1.139,3.743,0,6.836-3.743,10.091-5.805,20.345-11.068,29.893a60.914,60.914,0,0,1-17.9,20.019c-1.139.814-4.72,3.852-6.076,3.635-1.194-.163-3.581-3.309-4.395-4.177-3.689-3.852-7.053-8.029-10.742-11.881-5.7-5.968-11.176-12.1-16.71-18.12-6.4-7-12.1-14.974-17.849-22.461-2.658-3.472-6.076-6.239-9.006-9.44-3.96-4.286-7.6-8.952-11.393-13.4-1.139-1.356-3.038-4.829-4.829-4.774-1.248.054-3.418,2.93-4.069,3.852-2.387,3.418-2.387,9.549-3.581,13.78a71.612,71.612,0,0,1-15.462,28.483c-7.216,7.975-16.439,13.618-24.956,20.019-9.223,6.944-17.958,14-25.282,22.949-2.93-2.713-6.076-5.046-9.006-7.812-2.713-2.6-6.348-4.72-8.789-7.541Zm136.609,47.58c-2.062,0-5.534,1.3-7.378.543,5.48-6.076,10.525-11.285,17.415-15.679,7.216-4.612,14.377-9.169,21.321-14.106,14.052-9.928,24.414-21.647,30.327-38.14a133.041,133.041,0,0,0,3.635-13.075c.6-2.333,1.79-13.346,3.8-14.323,1.194-.543,10.2,5.751,11.61,6.565a101.246,101.246,0,0,0,10.145,4.72,156.71,156.71,0,0,0,22.895,7.433c9.44,2.387,15.842-1.573,21.647-8.952,6.619-8.409,12.1-17.849,18.175-26.692a80.385,80.385,0,0,0,7.053-12.424c1.356-2.875,6.619-10.688,4.774-13.78-5.208,3.96-7.053,11.827-10.634,17.144-4.395,6.619-9.386,12.858-13.835,19.423-3.743,5.534-7.541,12.261-13.075,16.276-4.828,3.526-9.44,2.441-14.648.868-6.348-1.9-12.858-2.875-19.1-5.208-6.727-2.55-13.075-6.185-19.585-9.169-3.038-1.356-6.727-2.17-9.6-3.906-2.5-1.465-2.116-2.279-2.279-5.425-.217-3.689-.434-7.378-.6-11.068-.108-2.5,1.248-5.859.326-7.7,7.433,1.3,14.7,3.038,22.081,4.557,4.015.814,7.921,1.845,11.99,2.55,1.573.271,3.689.217,5.1.922,1.085-.326,1.682-.109,1.682.6a8.68,8.68,0,0,0,.271,1.139c2.279,1.031,3.581-1.194,5.588-3.309a47.991,47.991,0,0,0,6.076-8.68c4.015-6.89,8.626-13.4,12.315-20.508,3.8-7.27,6.836-15.028,10.037-22.515,2.93-6.89,4.829-14.377,8.029-21.1a37.987,37.987,0,0,1,5.425-8.029c1.79-2.116,4.5-6.619,7.107-7.6.705-.271,2.55.163,3.309.109,1.573-.109,2.984-.705,4.612-.543,3.526.271,7.324,2.5,10.091,4.449-1.79,1.628-6.348,3.581-3.092,6.456,3.147,2.821,4.883-2.224,6.076-4.449,5.642,4.666,4.829,11.068,5.48,17.632.326,3.418,1.248,6.836,1.845,10.2.434,2.441.109,4.937.217,7.433.326,6.293.922,12.37.922,18.555-.054,6.673-.488,13.075-1.031,19.694-.922,11.122-2.93,22.244-4.72,33.257-.977,6.185-2.333,12.207-3.635,18.338-1.519,6.944-4.232,13.455-5.805,20.4-1.573-2.007-2.767-2.007-5.317-1.736-1.953.217-3.255-.271-3.147,2.441a3.86,3.86,0,0,0,3.364,3.418c2.224.38,3.038-.705,4.177-2.441.271,3.2-1.9,6.619-2.767,9.766a51.34,51.34,0,0,1-2.713,8.789c-1.356,2.767-2.5,5.534-3.8,8.3-.6,1.248-1.194,2.55-1.845,3.852a12.569,12.569,0,0,1-1.139,2.062c-1.085,1.248-.922.651-2.224,1.356-2.821,1.573-1.79,1.194-1.845,4.449-.054,3.2-1.682,5.534-4.34,7.378-5.588,3.8-11.122,4.883-17.469,6.836-5.914,1.79-12.153,3.364-18.446,3.309-7.7-.054-15.245-1.031-22.949-1.139-8.463-.109-17.035-.054-25.5.217a44.968,44.968,0,0,0-10.091,1.139c-3.906,1.031-7.7.651-11.719.488-8.572-.326-17.469-.977-25.933-1.085-6.076-.217-12.532-.651-18.663-.271ZM50.013,309.93c-1.519.814-4.937.488-6.51.271-2.713-.38-2.984-1.465-4.72-3.852a53.859,53.859,0,0,1-7.107-12.966c-3.309-9.223-4.666-18.609-6.131-28.266-1.628-10.688,1.356-21.81,2.387-32.443.217-2.441.6-4.829.977-7.27.217-1.465.271-6.348,1.248-7.6,1.845-2.387,10.362-.488,13.672-.271,9.331.6,18.717.76,28.049.868,4.991.054,9.983.271,14.92.326,2.279,0,4.449-.109,6.727-.326.76-.054,1.519-.271,2.279-.271,2.6-.163,2.441-.543,3.092,1.79,1.194,4.069.271,9.223.6,13.455.434,5.642.651,11.339.543,16.981-.108,5.208.109,10.417-.108,15.679a28.3,28.3,0,0,1-.868,6.022c-.651,2.333-1.356,7.812-2.984,9.44-.163.163-1.573-.271-1.9.217-.543.705-.434,2.224-.868,2.658-1.248,1.465-3.8,1.573-5.7,2.279a129.072,129.072,0,0,0-14.648,6.239c-4.286,2.17-11.23,4.069-13.835,8.409-1.194,2.007-1.356,4.611-2.441,6.673-1.248,2.333,1.248,1.139-1.79,2.062-1.3.326-3.526-.109-4.883-.109Zm453.935-26.421c.38,5.371,3.418,10.525,4.5,15.842.488,2.5,1.356,4.937,1.9,7.378.543,2.387,2.55,5.154,2.387,7.487-7.433-2.658-14.974-3.309-22.732-4.015-7.378-.651-15.137-.922-22.461-.977-7.433,0-15.408-.705-23.058-.868-8.029-.109-16.167-.326-24.034-1.139,4.123-3.038,9.277-5.914,12.37-10.2,3.309-4.612,5.046-10.417,7.975-15.3,5.859-9.82,9.6-21.972,12.641-32.986,6.185-22.244,13.129-44.053,14.811-67.111,3.2,1.628,5.7,7.921,7.27,11.068,2.007,4.015,3.092,8.355,4.395,12.641,2.713,8.789,4.611,17.9,7.921,26.584C494.128,248.624,498.2,266.581,503.947,283.508Zm-403.7-129.5c-1.356,9.928-4.286,20.019-4.395,30.056,0,2.224.326,4.666-.108,6.836-.488,2.333-2.116,4.395-3.038,6.619-1.465,3.526-5.208,10.742-1.573,13.672.054-2.821,2.658-6.4,3.96-8.9,1.953-3.743,4.557-7.107,6.673-10.742a150.3,150.3,0,0,1,15.191-21.755c5.588-6.51,12.044-12.315,17.958-18.555,1.79-1.845,16.059-19.857,16.656-19.585-4.449,17.09-11.99,31.955-22.3,46.278-5.046,7-11.122,11.61-17.307,17.578-5.1,4.937-14.811,10.254-13.021,18.338-8.029-.76-15.95-2.007-24.034-2.007,1.356-10.254,2.333-20.291,4.72-30.382,2.713-11.447,4.5-23.22,6.782-34.722,2.333-11.773,6.293-23.166,8.735-34.939,2.333-11.23,4.394-22.461,6.076-33.854,1.411,6.293.922,13.238,1.411,19.64a169.3,169.3,0,0,1,.271,19.64c-.217,12.424-1.519,24.522-2.658,36.784ZM65.529,95.467c-.054-5.263-1.085-10.417-1.356-15.679-.109-1.628-1.682-12.587-.217-13.129,1.248,2.658,1.519,6.131,2.658,8.9,1.139,2.821,2.6,5.48,3.689,8.3,2.333,6.131,3.092,13.075,3.364,19.585.543,14.757.868,29.405-.109,44.162-.434,6.293-.76,12.641-.651,18.989.109,6.944,1.194,13.021-.109,19.911a164.861,164.861,0,0,0-2.5,20.562c-.326,4.883-.434,4.5-5.046,4.177-3.364-.271-6.727,0-10.091-.163,1.573-18.989,1.845-37.977,4.34-56.911,1.3-9.657,1.3-19.423,2.93-29.025.814-4.774,2.116-9.44,2.875-14.214.705-5.154.271-10.308.217-15.462ZM405.207,83.532c-8.952.76-18.446,3.472-27.615,1.682,1.519-.6,5.48-1.465,3.689-3.852-1.79-2.441-4.883.651-6.673.326-1.139-.217-3.581-4.829-4.232-5.805-1.573-2.17-1.736-2.55-4.557-3.147-2.713-.543-3.309.054-3.689-2.658-.38-3.092.651-6.565.6-9.766-.217-6.836-2.441-12.8-4.5-19.206,8.68,1.9,17.2,4.123,26.1,5.371,3.8.543,9.711,1.736,13.183-.868.922-.651.76-1.573,1.465-2.387a12,12,0,0,1,5.263-3.038c10.742-2.279,11.827,13.075,6.4,18.826-1.356,1.465-3.255,2.17-4.611,3.472-1.845,1.736-2.007,3.635-2.279,6.293a27.929,27.929,0,0,0,2.333,14.7ZM274.566,156.014c-3.2.6-6.51.488-9.657.977-1.139.163-4.5.814-5.534.163-1.519-1.031-2.062-4.72-2.767-6.456-1.248-3.038-3.038-5.7-4.232-8.789-4.937-12.641-9.494-25.282-15.462-37.489a49.7,49.7,0,0,1,6.348-.922c2.387-.326,4.557-1.736,6.836-2.333,2.17-.6,4.449-.434,6.619-1.085,1.194-.38,2.224-1.194,3.364-1.465,1.845-.434,4.015-.705,5.154.488,1.139,1.248,1.519,4.72,2.17,6.293,1.628,4.34,3.581,8.463,4.937,12.912,1.248,3.96,2.441,7.921,3.526,11.936,1.139,4.232,3.418,7.758,4.828,11.827a35.981,35.981,0,0,1,2.224,9.549c.163,3.2.6,3.418-2.6,3.906-1.736.217-4.232,1.194-5.751.488ZM65.42,306.349a2.25,2.25,0,0,1-2.333-.163c7.161-3.038,14.16-7.216,21.647-9.331,7-1.953,13.835-4.286,20.616-6.673,5.48-1.953,10.417-3.472,15.408-6.89a28.319,28.319,0,0,0,7.758-7.487c2.333-3.418,2.821-8.246,5.317-11.285,3.364,3.689,7.324,6.51,11.339,9.44,1.356,1.031,4.72,3.255,5.154,4.829.6,2.007-.977,3.906-1.79,5.914a92.673,92.673,0,0,0-4.123,15.679c-.434,2.17-1.411,5.371-3.147,6.293-1.628.814-6.239.217-8.246.054-10.417-.814-20.67-1.573-31.2-.868-11.881.814-24.577,1.356-36.4.488Zm-20.833-95.54c-1.9,0-3.743-.217-5.642-.217,1.085-5.1-1.465-11.664-2.387-16.764-1.031-5.7-1.79-11.556-2.441-17.307a308.921,308.921,0,0,1-2.062-36.132c0-11.773-2.17-22.515-5.154-33.854-3.2-12.153-8.518-23.058-12.858-34.776,4.774,2.55,7.433,8.463,9.928,12.966a63.351,63.351,0,0,1,6.619,18.5c2.5,12.37,5.263,24.794,8.138,37.163,2.984,12.858,4.774,25.879,8.246,38.628,1.682,6.239,3.96,13.889,4.069,20.291.054,2.658.868,8.246-.326,10.525-1.194,2.17-3.689,1.194-6.131.977Zm286.185-16c.108,1.3.217,2.6.434,3.906-2.6,0-5.968-2.767-8.192-3.96-2.767-1.465-5.48-3.147-8.192-4.611-5.208-2.875-11.068-4.774-16.6-7.161-6.348-2.713-12.207-6.022-18.283-9.332-2.116-1.139-17.361-7.758-17.144-9.549l10.037-.326c2.875-.109,7.324.543,10.091-.326a7.111,7.111,0,0,0,3.743-3.689c.543-1.411-.705-7.758.054-8.192,3.743,3.852,6.131,8.9,9.44,13.021,3.689,4.557,8.464,7.216,13.78,9.657,5.805,2.658,11.881,4.774,17.795,7.053,2.5.977,2.441,1.519,2.658,4.286.326,3.038.271,6.131.38,9.223ZM28.094,310.581c-6.293.651-12.8.271-19.151.814-2.333.217-5.534.488-3.2,3.581,1.465,1.953,6.185,1.356,8.3,1.465,5.7.38,11.773.163,17.524.109,1.194,0,2.55-.38,3.743-.271,1.411.108,3.092,1.085,4.394,1.085.814,0,1.085-.814,1.736-.922a40.793,40.793,0,0,1,4.449-.271c22.678,0,45.03-.434,67.654-.488,10.8,0,21.81-.217,32.606-.705,2.279-.109,15.191.38,14.865-3.743-.163-2.116-4.394-2.387-5.968-2.6-1.139-.163-2.333-.163-3.472-.217-3.038-.163-4.395.543-3.743-2.767,2.441-12.587,6.782-23,16.113-32.064,7.6-7.433,16.764-14.106,25.39-20.345,10.471-7.541,18.934-15.408,25.173-26.909a89.3,89.3,0,0,0,8.518-21c.651-2.658.705-5.7,1.519-8.3.651-2.007,2.062-3.364,2.93-5.425,10.417,17.361,24.2,31.955,36.838,47.634a185.147,185.147,0,0,0,20.182,21.1c2.116,1.953,4.123,3.96,6.131,6.022,1.682,1.736,4.34,3.309,5.751,5.208,1.356,1.845,1.031,1.79-1.031,3.255-2.713,1.953-5.751,3.581-8.518,5.48-4.449,3.038-9.277,5.588-13.238,9.223A140.215,140.215,0,0,0,261.816,302.5c-2.5,2.984-5.751,6.782-6.4,10.525-.217,1.248-.977,4.286.054,5.208.868.76.814.488,1.9,0,1.465-.6,1.9-2.062,3.635-2.713,4.5-1.736,9.983-1.139,14.7-1.139s9.44.488,14.16.488c10.742-.054,21.267.814,32.009,1.3,11.393.488,22.949-.705,34.342-.543,8.409.109,17.09-.488,25.716-.054,4.449.217,8.843-.326,13.183-.38,5.7-.109,11.5.705,17.252.814,9.44.163,18.717.163,28.157.434,20.4.488,40.635.977,61.035,1.3,2.713.054,5.7-.054,8.409.271,2.875.326,1.356.922,3.309,1.953,5.48,2.875,4.232-7.758,4.069-9.874-.705-11.23-3.581-22.244-7-32.877-3.255-10.091-5.914-20.67-8.626-31.033-3.038-11.285-6.944-22.135-10.525-33.366-3.635-11.447-6.619-23.383-13.238-33.528-1.519-2.333-3.092-4.829-5.48-6.293-2.713-1.628-2.821-.705-2.821-3.689,0-2.821-.163-6.565.488-9.277.6-2.441.488-.977,1.845-2.713,1.085-1.411,2.279-2.387,3.038-4.123,4.883,4.937,16,2.333,20.67-1.194a33.621,33.621,0,0,0,11.719-18.663c1.3-5.588-.271-16.276-6.51-18.989-3.038-1.3-14.106-2.333-14.594-6.565-.217-2.224,3.689-5.317,4.557-7.216a43.118,43.118,0,0,0,3.743-12.044c.922-7.541-2.5-15.95-7.975-21.05-9.983-9.332-27.561-14.106-40.418-8.192,2.713-10.362,4.34-19.314,2.984-30.11-1.194-9.277-6.673-14.486-14.214-19.151C422.134,2.1,404.61-.994,389.853,1.284a76.264,76.264,0,0,0-9.657,2.55c-4.5,1.3-9.874.868-14.16,2.984-3.092,1.519-5.425,4.557-8.138,6.565a37.92,37.92,0,0,0-7.975,9.169c-4.72,7-2.875,19.965,1.085,26.964a12.242,12.242,0,0,0,3.255,3.8c1.465,1.085,3.689,1.411,4.395,2.767,1.9,3.526.054,11.23-.163,15.082-.271,4.449,1.953,7.812,7,8.138,2.93.217,3.038-1.465,4.394,2.007a42.367,42.367,0,0,0,3.038,6.782c2.713,4.286,7.65,3.852,12.153,3.743,5.208-.109,10.362-.977,15.571-1.465-1.356,4.394-5.154,7.812-7.487,11.773-3.2,5.317-5.1,9.711-5.642,15.9-.38,4.774.434,8.518,3.743,12.044,1.356,1.465,2.55,1.519,2.224,3.255-.217,1.031-2.007,2.713-2.6,3.581-1.682,2.17-3.635,4.177-5.1,6.51-5.642,8.952-7.324,22.624-7.324,33.04,0,.488-.271,1.519-.054,2.007.163.38,1.356,1.519,1.356,1.628a3.766,3.766,0,0,1-3.147,3.852c-2.17.217-6.076-1.573-8.084-2.17-3.2-.922-6.456-1.628-9.657-2.6-5.154-1.573-10.308-2.821-15.571-4.069-2.387-.543-4.774-1.031-7.161-1.519-2.713-.6-3.96-1.736-5.371,1.031-1.194,2.387-.434,2.821-3.364,1.628-2.875-1.194-5.7-2.658-8.518-4.015-4.991-2.333-10.9-4.449-15.191-7.921-7.161-5.805-9.82-15.082-16.656-21.213-1.9-1.736-3.038-1.736-4.232-4.123-1.3-2.55-1.953-5.805-2.658-8.572-1.194-4.774-2.062-9.6-3.092-14.377-1.356-5.968-4.232-11.393-6.348-17.035-.814-2.224-1.248-5.046-2.6-7.053-.326-.543-1.031-.814-1.3-1.248a7.287,7.287,0,0,1-1.194-3.743c-1.139-8.463-6.185-4.015-11.664-2.062-2.333.814-13.346,6.076-9.115,9.6-4.991,1.465-13.021.651-12.966,7.867.054,3.689,2.224,7.6,3.418,11.068,1.031,3.038,2.062,6.131,3.147,9.169,2.333,6.673,5.154,13.183,7.433,19.911a67.254,67.254,0,0,0,3.364,9.06c1.3,2.55,4.34,5.371,4.883,8.138-13.346-5.7-25.716-13.943-40.69-13.4-6.565.217-12.478,2.984-16.113,8.735-4.557,7.216-7.541,15.3-11.936,22.569-16.113,26.475-35.319,50.564-53.059,75.954-1.356,1.953-3.092,3.8-3.581,6.185-.326,1.573.271,3.147-.054,4.666-.76,3.147-4.612,7.053-7.27,8.843-5.046,3.472-13.183,8.355-19.477,7.921,3.96-9.44,3.906-19.8,3.689-29.948a251.929,251.929,0,0,0-2.441-28.591,40.694,40.694,0,0,0-1.139-6.239c-.705-2.387-1.682-2.17.434-4.286,3.255-3.309,7.161-6.022,10.417-9.386,7.107-7.216,14.431-12.912,20.019-21.538,5.317-8.192,10.959-16.656,14.865-25.662,4.069-9.277,5.7-19.151,7.7-28.971.814-3.96,3.8-8.409,3.2-12.587-.76-5.263-3.2-1.411-4.177,1.411-3.038,8.626-10.091,16.33-16,23.275-6.348,7.487-14.106,13.78-20.725,21.05-7.216,7.921-12.153,17.035-18.555,25.5,0-10.525,3.581-21.213,5.046-31.575,1.3-9.169,1.682-18.338,2.5-27.506,1.845-20.887.271-42.317-2.333-63.042-1.248-9.82-.543-19.423-.6-29.3,0-3.147,1.3-10.362-.38-13.183-3.2-5.317-5.046,6.348-5.208,8.084C97.267,39.044,99,49.3,98.135,59.66c-.922,10.8-2.93,21.267-4.612,31.9-1.845,11.556-4.829,22.841-7.7,34.125-2.984,11.881-5.534,24.034-8.9,35.807-.922-3.689.38-8.246.6-12.044.38-5.425,1.031-10.8,1.139-16.222.109-8.626.163-17.415-.326-25.987-.488-8.463-.326-17.361-2.93-25.5a86.08,86.08,0,0,0-4.829-11.285c-2.17-4.5-2.93-8.843-4.177-13.618-1.031-4.123-2.55-8.084-3.255-12.261-.434-2.6-1.628-10.254-4.612-4.449-1.736,3.364-.977,8.355-1.031,11.99-.054,4.666.651,9.169.76,13.78.217,9.06.38,18.121,1.031,27.181a98.934,98.934,0,0,1-1.736,27.4C55.6,130.732,55,140.986,53.973,151.4c-.543,5.371-1.411,10.688-1.845,16.059-.217,2.821.922,11.013-1.085,13.021-.217-4.937-1.628-9.874-2.658-14.648-1.248-5.7-1.79-11.664-2.713-17.415-1.519-9.332-4.449-18.283-6.4-27.506C35.256,101.869,31.946,77.4,15.182,64.977a64.407,64.407,0,0,0-7-4.177C6.827,60.04,4.82,58.087,3.3,57.707,1.619,57.328.914,57.6.263,59.552c-.922,2.713.76,3.96,2.387,5.968C8.238,72.356,10.625,81.09,14.1,89.066a143.1,143.1,0,0,1,11.447,57.4,289.548,289.548,0,0,0,1.845,30.653c1.194,11.068,2.767,22.786,6.131,33.474-3.364.76-7.053-.38-7.975,3.526-.217.977.163,2.116-.054,3.364a31.594,31.594,0,0,1-1.194,3.635,50.556,50.556,0,0,0-1.411,7.487c-1.356,9.82-3.635,19.206-3.906,29.188-.217,9.223,1.573,18.555,3.255,27.615,1.682,9.115,6.51,16.873,10.254,25.119-1.139,0-2.767,0-4.395.054Z" transform="translate(0 -0.253)"/><path class="b" d="M520.657,524.906c1.79.488,10.471,1.465,10.471,4.177,0,1.628-8.681,1.573-10.2,1.79-.109-1.953-.217-3.96-.271-5.968m-19.151,18.772c-4.991.977-11.773-.38-14.974-4.774-1.519-2.062-2.224-5.208-2.713-7.65-.488-2.333-1.9-8.192-.922-10.362,1.194-2.713,12.7.109,16,.434a113.251,113.251,0,0,0,17.686.217c0,6.022.325,11.881-3.255,17.09-2.5,3.743-7.27,4.612-11.827,5.046m.977,7.487c5.425-2.007,11.122-.705,14.648-6.51a21.859,21.859,0,0,0,2.17-4.72,10.359,10.359,0,0,0,.6-2.224c-.271-1.628.326-2.062,1.79-1.356,2.875-.543,6.022,1.411,9.06.814,7.324-1.411,6.022-11.936,1.085-15.571a10.714,10.714,0,0,0-3.038-1.3c-2.441-.76-3.8.109-6.022-.108-1.845-.163-2.333-2.062-4.286-2.93a13.4,13.4,0,0,0-4.394-.543c-7.053-.271-14.106-.271-21.159-.76-3.309-.217-6.89.326-10.091-.271-1.519-.271-1.3-1.248-2.713-.38-1.465.922-.868,4.286-.76,5.642.434,7.812.922,16.167,5.1,23,3.8,6.239,11.339,6.89,18.012,7.216" transform="translate(-278.263 -235.575)"/><path class="b" d="M17.542,585.554c-1.736,0-3.472-.054-5.208-.054,1.736.054,3.472.054,5.208.054" transform="translate(493.349 -267.849)"/><path class="b" d="M759.034,456.5c.054,1.085.109,2.224.163,3.309,0-1.085-.054-2.224-.163-3.309" transform="translate(-653.412 -208.835)"/><path class="b" d="M896.334,571.685c1.085,0,2.17,0,3.2-.054a3.874,3.874,0,0,0-3.2.054" transform="translate(-868.24 -261.358)"/><path class="b" d="M728.813,580.954c-.76,0-1.519,0-2.279-.054.705,0,1.519,0,2.279.054" transform="translate(-605.396 -265.744)"/><path class="b" d="M905.388,301.7c0-.814-.054-1.682-.054-2.5,0,.868,0,1.682.054,2.5" transform="translate(-878.976 -136.875)"/><path class="b" d="M772.134,107.2c.054-.868.109-1.736.217-2.6-.108.922-.163,1.79-.217,2.6" transform="translate(-673.674 -47.851)"/><path class="b" d="M906.088,282.6c0-.868,0-1.736-.054-2.6,0,.868.054,1.736.054,2.6" transform="translate(-880.056 -128.092)"/><path class="b" d="M461.4,579c-.705,0-1.356,0-2.062.054.651-.054,1.356-.054,2.062-.054" transform="translate(-193.015 -264.875)"/><path class="b" d="M786.741,581.6c-.651,0-1.356,0-2.007.054.705-.054,1.356-.054,2.007-.054" transform="translate(-694.9 -266.064)"/><path class="b" d="M917.734,467.979l.163-2.279-.163,2.279" transform="translate(-898.212 -213.044)"/><path class="b" d="M760.562,581.554c-.543,0-1.085,0-1.628-.054.543.054,1.085.054,1.628.054" transform="translate(-654.723 -266.019)"/><path class="b" d="M222.97,581.008c-.6-.054-1.139-.054-1.736-.109.6,0,1.194.054,1.736.109" transform="translate(174.587 -265.744)"/><path class="b" d="M510.734,176.112c.868-.054,1.736-.163,2.55-.217-.814.054-1.736-.434-2.55.217" transform="translate(-272.79 -80.409)"/><path class="b" d="M913.534,572.371c.868-.109,1.682-.163,2.55-.271-.814.054-1.682.163-2.55.271" transform="translate(-894.12 -261.719)"/><path class="b" d="M809.234,186c.054.76.109,1.465.163,2.224-.054-.705-.109-1.465-.163-2.224" transform="translate(-730.847 -85.089)"/><path class="b" d="M906.6,241.116,906.434,239c.054.76.109,1.411.163,2.116" transform="translate(-880.781 -109.335)"/><path class="b" d="M808.634,207.2c.054.76.108,1.465.163,2.224a15.345,15.345,0,0,0-.163-2.224" transform="translate(-729.922 -94.788)"/><path class="b" d="M906.139,293.416V291.3a1.986,1.986,0,0,0,0,2.116" transform="translate(-879.998 -133.261)"/><path class="b" d="M758.7,484.3v2.17a1.874,1.874,0,0,0,0-2.17" transform="translate(-653.075 -221.553)"/><path class="b" d="M858.134,329.77c.108-.705.163-1.465.271-2.17-.108.705-.163,1.465-.271,2.17" transform="translate(-806.386 -149.867)"/><path class="b" d="M32.634,209c.543.76,1.3.217,2.007.326-.705-.109-1.356-.217-2.007-.326" transform="translate(465.237 -95.611)"/><path class="b" d="M755.851,214.6c-.054.6-.109,1.194-.217,1.79.108-.6.163-1.194.217-1.79" transform="translate(-648.222 -98.173)"/><path class="b" d="M106.834,104.03c.705,0,1.411.054,2.116.054a1.787,1.787,0,0,0-2.116-.054" transform="translate(350.672 -47.444)"/><path class="b" d="M808.534,226.4c.054.651.109,1.248.163,1.9-.109-.651-.109-1.248-.163-1.9" transform="translate(-729.768 -103.571)"/><path class="b" d="M773,82.036c-.054-.6-.109-1.139-.163-1.736A8.977,8.977,0,0,0,773,82.036" transform="translate(-674.699 -36.735)"/><path class="b" d="M762.234,80.2c.054.651.109,1.248.163,1.9-.054-.651-.109-1.3-.163-1.9" transform="translate(-658.349 -36.689)"/><path class="b" d="M188.634,3.3c.705.109,1.465.163,2.17.271-.76-.109-1.465-.163-2.17-.271" transform="translate(224.439 -1.51)"/><path class="b" d="M92.134,105.2c.76.054,1.465.163,2.224.217-.76-.054-1.519-.109-2.224-.217" transform="translate(373.239 -48.126)"/><path class="b" d="M847.143,107.136c-.054-.6-.109-1.139-.109-1.736.054.6.109,1.139.109,1.736" transform="translate(-789.101 -48.217)"/><path class="b" d="M762.434,417.6c.054.651.109,1.3.109,1.953,0-.705-.054-1.356-.109-1.953" transform="translate(-658.603 -191.039)"/><path class="b" d="M843.034,185.245c0-.6.054-1.248.054-1.845,0,.6,0,1.194-.054,1.845" transform="translate(-782.876 -83.9)"/><path class="b" d="M222.734.326h1.953a1.628,1.628,0,0,0-1.953,0" transform="translate(172.056 0)"/><path class="b" d="M547.234,269.33c.705,0,1.465.054,2.17.054a1.874,1.874,0,0,0-2.17-.054" transform="translate(-328.712 -123.064)"/><path class="b" d="M669.036,578.9a10.435,10.435,0,0,0-1.3.054,9.625,9.625,0,0,0,1.3-.054" transform="translate(-513.719 -264.827)"/><path class="b" d="M698.736,580.254c-.434,0-.868-.054-1.3-.054a10.445,10.445,0,0,0,1.3.054" transform="translate(-559.532 -265.424)"/><path class="b" d="M233.09,580.9a11.8,11.8,0,0,0-1.356.054,11.8,11.8,0,0,1,1.356-.054" transform="translate(158.77 -265.743)"/><path class="b" d="M916.934,455.045c.054-.6.109-1.248.217-1.845-.109.651-.163,1.248-.217,1.845" transform="translate(-897.032 -207.325)"/><path class="b" d="M810,266.2c-.054.6-.109,1.194-.163,1.736.054-.6.109-1.194.163-1.736" transform="translate(-731.773 -121.778)"/><path class="b" d="M850.834,246.145c.054-.6.163-1.248.217-1.845-.054.6-.163,1.194-.217,1.845" transform="translate(-795.071 -111.76)"/><path class="b" d="M239.79,581.583h-1.356a11.324,11.324,0,0,1,1.356,0" transform="translate(148.435 -266.047)"/><path class="b" d="M542.036,581.652c-.434,0-.868-.054-1.3-.054a10.446,10.446,0,0,1,1.3.054" transform="translate(-317.818 -266.063)"/><path class="b" d="M844.334,162.7c0-.651.054-1.248.054-1.9-.054.651-.054,1.248-.054,1.9" transform="translate(-784.882 -73.561)"/><path class="b" d="M863.436,582.2c-.434.054-.868.054-1.3.108.434-.054.868-.054,1.3-.108" transform="translate(-813.587 -266.339)"/><path class="b" d="M870.636,582.2a10.434,10.434,0,0,0-1.3.054,9.6,9.6,0,0,1,1.3-.054" transform="translate(-824.693 -266.336)"/><path class="b" d="M906.434,250.645c.054-.6.054-1.248.109-1.845-.054.651-.109,1.248-.109,1.845" transform="translate(-880.727 -113.818)"/><path class="b" d="M361.4,567.117c-1.356-.054-2.713-.163-4.069-.217,1.356.054,2.713.109,4.069.217" transform="translate(-37.684 -259.34)"/><path class="b" d="M210.66,153.5c-1.194.109-2.333.217-3.526.326,1.194-.109,2.333-.217,3.526-.326" transform="translate(194.546 -70.222)"/><path class="b" d="M817.343,247.4c-.054,1.139-.054,2.224-.109,3.364,0-1.085.054-2.224.109-3.364" transform="translate(-743.134 -113.178)"/><path class="b" d="M865.523,570.8c-1.248.054-2.441.163-3.689.217,1.248.054,2.5.434,3.689-.217" transform="translate(-815.511 -261.124)"/><path class="b" d="M848.588,324.2c0-1.085,0-2.116-.054-3.2.054,1.085.054,2.116.054,3.2" transform="translate(-791.36 -146.848)"/><path class="b" d="M845.935,388.7c-1.085,0-2.17.054-3.2.054,1.031,0,2.116-.054,3.2-.054" transform="translate(-785.56 -177.819)"/><path class="b" d="M344.334,354.1c.054.814.054,1.628.054,2.441,0-.814-.054-1.628-.054-2.441" transform="translate(-13.617 -161.99)"/><path class="b" d="M875.534,290.6c.054.814.109,1.628.109,2.441,0-.814-.054-1.628-.109-2.441" transform="translate(-833.063 -132.941)"/><path class="b" d="M835.767,564.063c-.76-.054-1.573-.108-2.333-.163.543.434,1.139.488,2.333.163" transform="translate(-770.347 -257.967)"/><path class="b" d="M824,369.2l-.163,2.6.163-2.6" transform="translate(-753.368 -168.898)"/><path class="b" d="M828.464,388.954l-2.93-.054a3.276,3.276,0,0,0,2.93.054" transform="translate(-758.758 -177.91)"/><path class="b" d="M414.509,564.8c-.977,0-1.9,0-2.875.054a2.866,2.866,0,0,0,2.875-.054" transform="translate(-120.25 -258.379)"/><path class="b" d="M84.509,569.671c-.977-.109-1.953-.163-2.875-.271.977.109,1.953.217,2.875.271" transform="translate(388.785 -260.483)"/><path class="b" d="M818.1,260.7l-.163,2.6a20.974,20.974,0,0,0,.163-2.6" transform="translate(-744.268 -119.262)"/><path class="b" d="M252.775,157.019a2.6,2.6,0,0,0-2.441-.054c.814,0,1.628,0,2.441.054" transform="translate(128.994 -71.679)"/><path class="b" d="M769.051,279.3c-.054.76-.109,1.465-.217,2.224.054-.76.109-1.465.217-2.224" transform="translate(-668.584 -127.771)"/><path class="b" d="M894.972,245.67a2.082,2.082,0,0,0,0-2.17v2.17" transform="translate(-863.243 -111.394)"/><path class="b" d="M874.33,387.816a2.554,2.554,0,0,0-2.5,0h2.5" transform="translate(-829.743 -177.261)"/><path class="b" d="M375.784,566.517c-.868-.054-1.682-.163-2.55-.217.868.054,1.682.109,2.55.217" transform="translate(-60.692 -259.065)"/><path class="b" d="M162.713,566.421a2.156,2.156,0,0,0-2.279,0h2.279" transform="translate(267.83 -258.97)"/><path class="b" d="M453.775,564.406a2.327,2.327,0,0,0-2.441,0h2.441" transform="translate(-181.055 -258.039)"/><path class="b" d="M113,367.9c-.054.76-.109,1.465-.163,2.224.054-.705.109-1.465.163-2.224" transform="translate(343.37 -168.303)"/><path class="b" d="M468.275,288.681a2.76,2.76,0,0,0-2.441.054c.814-.054,1.628-.054,2.441-.054" transform="translate(-203.421 -131.945)"/><path class="b" d="M817.943,329.7c-.054.705-.109,1.465-.109,2.17,0-.705.054-1.411.109-2.17" transform="translate(-744.059 -150.828)"/><path class="b" d="M111.434,208.6a16.857,16.857,0,0,0,.217,1.736,16.851,16.851,0,0,1-.217-1.736" transform="translate(345.476 -95.428)"/><path class="b" d="M24.934,522.1c.054.6.109,1.139.109,1.736,0-.6-.054-1.139-.109-1.736" transform="translate(479.013 -238.845)"/><path class="b" d="M848.934,335.29l.163-1.79c-.054.651-.109,1.194-.163,1.79" transform="translate(-792.086 -152.566)"/><path class="b" d="M742.4,562.6h-2.17c.705.054,1.465,0,2.17,0" transform="translate(-626.42 -257.373)"/><path class="b" d="M343.623,363.4c-.109.434-.271.868-.38,1.3.868.217.977-.217.38-1.3" transform="translate(-12.635 -166.245)"/><path class="b" d="M446.158,287.1h-2.224a2.062,2.062,0,0,0,2.224,0" transform="translate(-169.423 -131.34)"/><path class="b" d="M113.588,374.4c0,.651-.054,1.3-.054,1.953,0-.651,0-1.3.054-1.953" transform="translate(342.399 -171.277)"/><path class="b" d="M772.188,387.1c0,.6-.054,1.194-.054,1.79,0-.6,0-1.194.054-1.79" transform="translate(-673.511 -177.087)"/><path class="b" d="M102.25,569.008a1.79,1.79,0,0,0-2.116,0h2.116" transform="translate(361.007 -260.146)"/><path class="b" d="M134.043,193.2c-.054.6-.054,1.248-.109,1.845,0-.651.054-1.248.109-1.845" transform="translate(310.877 -88.383)"/><path class="b" d="M95.6,569.4h-2.17a1.65,1.65,0,0,0,2.17,0" transform="translate(371.288 -260.483)"/><path class="b" d="M222,155.5c-.705.109-1.411.163-2.062.271.705-.109,1.411-.217,2.062-.271" transform="translate(176.267 -71.137)"/><path class="b" d="M107.188,254.4c0,.6,0,1.139-.054,1.736.054-.6.054-1.194.054-1.736" transform="translate(352.271 -116.38)"/><path class="b" d="M841.634,252.69c.054-.6.054-1.194.109-1.79-.054.6-.054,1.194-.109,1.79" transform="translate(-780.771 -114.779)"/><path class="b" d="M546.284,568.2c-.868.054-1.736.163-2.55.217.814-.054,1.682-.163,2.55-.217" transform="translate(-323.693 -259.934)"/><path class="b" d="M536.034,527.3h1.356a5.665,5.665,0,0,1-1.356,0" transform="translate(-310.622 -241.224)"/><path class="b" d="M540.7,567.5c-.705.054-1.411.163-2.17.217.705-.054,1.411-.109,2.17-.217" transform="translate(-315.292 -259.614)"/><path class="b" d="M285.973,474.789c-.922,5.263,7.27,10.417,7.921,2.93.217-2.767-1.573-4.666-3.635-6.348-2.93-2.387-4.557-.109-4.286,3.418" transform="translate(68.561 -215.188)"/><path class="b" d="M143.6,359.8c-1.953.814-16.71,5.588-9.006,8.029,2.007.651,5.1.76,6.836-.38,2.116-1.356,4.232-5.371,2.17-7.65" transform="translate(301.321 -164.598)"/><path class="b" d="M141.078,228.174c-4.991-.6-9.6,7.65-3.472,7.378,4.5-.217,10.525-7.378,3.472-7.378" transform="translate(300.207 -104.369)"/><path class="b" d="M161.383,265.3c-4.177,3.635,3.581,11.827,6.673,8.68,1.573-1.628.109-5.1-1.194-6.456s-3.689-1.628-5.48-2.224" transform="translate(261.944 -121.367)"/><path class="b" d="M175.658,436.074c2.5.38,13.346,3.96,11.068-2.5-.868-2.441-3.255-1.736-5.48-1.628-3.581.163-5.588,0-5.588,4.123" transform="translate(235.245 -197.523)"/><path class="b" d="M173.136,470.3c-3.689,1.953,1.682,13.021,4.774,10.688,4.232-3.255-1.573-9.711-4.774-10.688" transform="translate(244.928 -215.148)"/><path class="b" d="M220.117,453.858c-1.79-.76-10.254,7.433-7.053,9.657,1.628,1.139,4.774-.814,5.805-2.007a8.1,8.1,0,0,0,1.248-7.65" transform="translate(181.834 -207.604)"/><path class="b" d="M119.99,331.1c-1.845.326-4.991.38-5.154,2.984-.109,2.279,2.767,2.984,4.72,3.2,2.062.163,4.829-.38,4.883-3.038.054-2.821-4.394-2.658-4.449-3.147" transform="translate(330.843 -151.468)"/><path class="b" d="M212.559,538.2c-1.953,1.194-11.068,5.48-7.161,8.572,1.465,1.139,5.914-1.248,6.89-2.441,1.194-1.465,2.333-4.883.271-6.131" transform="translate(192.973 -246.21)"/><path class="b" d="M259.541,477.4c.271-4.72-7.7-6.619-6.022.108.488,1.9.922,4.774,3.255,4.883,2.767.109,2.875-3.147,2.767-4.991" transform="translate(120.601 -216.447)"/><path class="b" d="M195.437,326.764c-.054,3.581,6.782,6.727,6.836,1.085.108-5.1-7.053-6.565-6.836-1.085" transform="translate(209.282 -147.892)"/><path class="b" d="M196.418,295.3c-1.682.543-3.96.814-4.069,2.984-.163,2.279,1.953,3.309,3.852,3.147,1.573-.109,3.852-1.248,4.123-2.93.434-2.5-2.007-2.658-3.906-3.2" transform="translate(212.857 -135.091)"/><path class="b" d="M148.758,412.317c.054-2.93-5.914-6.51-7-3.092-.326,1.085,2.441,6.022,3.364,6.4,2.5.977,2.821-1.248,3.635-3.309" transform="translate(291.93 -186.57)"/><path class="b" d="M217.209,504.2c2.007,1.79,8.029,6.836,7.541.054-.271-4.286-8.084-4.069-7.541-.054" transform="translate(174.977 -229.244)"/><path class="b" d="M418.846,541.691c-.651-2.821-10.037,2.062-6.89,5.7,1.031,1.194,3.8.109,4.883-.6,2.007-1.465,2.062-2.767,2.007-5.1" transform="translate(-124.424 -247.422)"/><path class="b" d="M321.01,426.29c-.38-1.248-.76-3.526-2.007-4.286-2.17-1.465-4.069.76-4.069,3.092,0,4.286,4.937,5.642,6.076,1.194" transform="translate(25.712 -192.84)"/><path class="b" d="M276.424,523.7c-2.441.543-7.867,6.51-4.72,8.9,3.038,2.333,7.053-7.107,4.72-8.9" transform="translate(93.573 -239.577)"/><path class="b" d="M276.086,441.1c-3.147.271-7.433,5.317-2.55,6.131,3.8.6,8.246-4.883,2.55-6.131" transform="translate(91.578 -201.79)"/><path class="b" d="M336.784,483.2c-.76-2.658-8.572.163-8.138,3.092.217,1.573,3.418,1.9,5.1,1.519,2.441-.6,3.092-2.224,3.038-4.612" transform="translate(2.505 -220.566)"/><path class="b" d="M166.857,208.664c-.054-3.418-6.619-4.829-7.107-1.356-.434,3.092,7.216,6.4,7.107,1.356" transform="translate(264.066 -93.919)"/><path class="b" d="M329.7,545.693c-.488-1.736-.705-3.8-2.821-4.015-2.441-.271-2.387,1.628-2.116,3.581.814,5.317,3.8,5.588,4.937.434" transform="translate(11.761 -247.79)"/><path class="b" d="M120.108,280.383c3.418.76,9.711-5.805,5.859-7.27-2.713-.977-5.859,5.263-5.859,7.27" transform="translate(325.246 -124.894)"/><path class="b" d="M205.756,375.134c1.736.814,2.17,1.3,3.472-.054,1.194-1.194,1.139-4.449.108-5.642-3.852-4.666-3.743,3.852-3.581,5.7" transform="translate(195.869 -168.375)"/><path class="b" d="M244.769,363.7c-1.845.217-7.216,5.371-4.395,7.378,3.418,2.5,5.371-5.317,4.395-7.378" transform="translate(142.589 -166.382)"/><path class="b" d="M304.423,361.867c1.3,5.1,4.612,1.682,4.449-2.17-.271-6.185-3.743-.814-4.449,2.17" transform="translate(43.546 -163.247)"/><path class="b" d="M352.248,517c-2.224.922-5.263,9.494-2.062,9.928,3.581.488,2.387-8.138,2.062-9.928" transform="translate(-24.352 -236.512)"/><path class="b" d="M299.933,508.021c-2.55-.868-3.526,4.557-2.007,5.534,3.309,2.224,2.6-4.232,2.007-5.534" transform="translate(55.903 -232.361)"/><path class="b" d="M253.134,481c.054.705.054,1.411.109,2.17-.054-.76-.054-1.465-.109-2.17" transform="translate(127.008 -220.043)"/><path class="b" d="M411.234,542.4c0,.76.054,1.465.054,2.224,0-.76-.054-1.519-.054-2.224" transform="translate(-116.812 -248.132)"/><path class="b" d="M328.534,484.1c0,.6.054,1.248.054,1.845,0-.6-.054-1.194-.054-1.845" transform="translate(10.755 -221.461)"/><path class="b" d="M801.128,462.91c-5.317-.163-11.23-2.17-16.439-1.519-1.411.163-4.72.543-2.441,2.658,1.085,1.031,6.348.488,7.975.814a140.214,140.214,0,0,0,30.816,3.2c4.666-.054,9.386-.434,14.052-.705s5.154-2.17-.109-2.767c-5.479-.651-11.068-.38-16.547-.38-5.805.054-11.556-.922-17.307-1.3" transform="translate(-745.148 -211.013)"/><path class="b" d="M861.207,435.589c.488,1.465.977,4.774,2.93,4.991,2.767.326,3.2-4.395,3.092-6.131-.109-2.062-.868-5.534-3.472-4.829-2.17.651-2.387,4.34-2.55,5.968" transform="translate(-816.891 -196.496)"/><path class="b" d="M847.7,434.406c-.38-1.573-.6-5.046-2.821-5.208-2.441-.108-3.147,3.526-3.147,5.263,0,1.682.651,4.829,2.6,5.208,2.658.543,2.93-3.472,3.364-5.263" transform="translate(-786.785 -196.344)"/><path class="b" d="M780.167,438.016c.814,1.9,1.3,4.449,3.8,3.2,1.9-.977,2.17-4.991,1.79-6.782-.38-1.9-1.139-4.069-3.309-3.2-2.5.977-2.279,4.72-2.279,6.782" transform="translate(-691.581 -197.186)"/><path class="b" d="M819.437,436.13c2.333,7.161,6.673,2.333,4.991-3.038-1.682-5.534-4.774-.109-4.991,3.038" transform="translate(-751.793 -197.037)"/><path class="b" d="M798.679,436.367c.651,1.248,1.356,3.96,3.092,3.689,2.17-.326,2.224-4.5,2.007-6.076-.217-1.356-.814-3.635-2.6-3.581-2.6.054-2.441,4.34-2.5,5.968" transform="translate(-719.587 -196.894)"/><path class="b" d="M888.171,440.436c1.736,3.906,4.177.543,3.418-2.224-1.194-4.177-3.309-.488-3.418,2.224" transform="translate(-856.008 -199.607)"/><path class="b" d="M805.034,466.508h5.751a12.125,12.125,0,0,0-5.751,0" transform="translate(-729.957 -213.255)"/><path class="b" d="M876.534,461.2c1.682,0,3.309,0,4.991.054a8.251,8.251,0,0,0-4.991-.054" transform="translate(-839.488 -210.819)"/><path class="b" d="M843.534,464.3c1.3.109,2.658.163,3.96.271-1.3-.054-2.6-.163-3.96-.271" transform="translate(-787.554 -212.403)"/><path class="b" d="M790.953,441.475c0-.977,0-1.9.054-2.875a3.165,3.165,0,0,0-.054,2.875" transform="translate(-702.367 -200.646)"/><path class="b" d="M791.834,466.9c1.085.108,2.17.163,3.255.271-1.085-.054-2.17-.163-3.255-.271" transform="translate(-707.1 -213.593)"/><path class="b" d="M819.034,466.508h3.2a3.875,3.875,0,0,0-3.2,0" transform="translate(-749.003 -213.255)"/><path class="b" d="M808.134,438.884c0-.977.054-2.007.054-2.984,0,.977,0,2.007-.054,2.984" transform="translate(-729.042 -199.411)"/><path class="b" d="M780.359,437.3v2.93a26.354,26.354,0,0,0,0-2.93" transform="translate(-686.185 -200.052)"/><path class="b" d="M856.834,463.7c.922.109,1.9.163,2.821.271-.922-.108-1.9-.217-2.821-.271" transform="translate(-806.93 -212.129)"/><path class="b" d="M894.534,441.75c.054-.868.054-1.682.108-2.55-.054.868-.108,1.736-.108,2.55" transform="translate(-862.371 -200.921)"/><path class="b" d="M822.387,473.854c-.651,0-1.3,0-1.953-.054.6.054,1.248.054,1.953.054" transform="translate(-749.914 -216.749)"/><path class="b" d="M872.034,439.145c.054-.6.109-1.194.163-1.845-.054.651-.109,1.248-.163,1.845" transform="translate(-827.718 -200.052)"/><path class="b" d="M829.134,439.1c.054-.651.109-1.248.109-1.9,0,.651-.054,1.3-.109,1.9" transform="translate(-761.49 -200.006)"/><path class="b" d="M201.734,90.7c2.6-.705,3.092-4.34,2.658-6.565-.488-1.085-.922-2.17-1.411-3.255.163-.38.38-.814.543-1.194-.217-2.224.38-3.2-2.17-2.279-4.72,1.682-5.48,13.129.38,13.292" transform="translate(205.86 -35.254)"/><path class="b" d="M264.327,89.194c-2.116-.163-6.022,2.333-3.906,4.72,1.3,1.465,5.642.76,7.433,1.085,2.333.434,4.774.977,3.526-2.55-.977-2.713-4.557-3.309-7.053-3.255" transform="translate(104.91 -40.8)"/><path class="b" d="M270.68,112.605c2.17-1.736,1.194-9.657-2.116-8.246-3.364,1.465.326,7.107,2.116,8.246" transform="translate(100.781 -47.664)"/><path class="b" d="M197.159,90.1v2.5a2.309,2.309,0,0,0,0-2.5" transform="translate(213.093 -41.218)"/><path class="b" d="M204.036,102.154a10.452,10.452,0,0,1-1.3-.054,10.452,10.452,0,0,0,1.3.054" transform="translate(203.558 -46.708)"/><path class="b" d="M689.409,520.051c.217,3.581,4.069.922,3.8-1.465-.542-4.395-2.984-.054-3.8,1.465" transform="translate(-549.662 -236.362)"/></svg>